<?xml version="1.0" standalone="no"?>
<!DOCTYPE svg PUBLIC "-//W3C//DTD SVG 20010904//EN"
 "http://www.w3.org/TR/2001/REC-SVG-20010904/DTD/svg10.dtd">
<svg version="1.0" xmlns="http://www.w3.org/2000/svg"
 width="345.000000pt" height="345.000000pt" viewBox="0 0 345.000000 345.000000"
 preserveAspectRatio="xMidYMid meet">
<metadata>
Created by potrace 1.11, written by Peter Selinger 2001-2013
</metadata>
<g transform="translate(0.000000,345.000000) scale(0.100000,-0.100000)"
fill="#000000" stroke="none">
<path d="M1738 3446 c-1 -2 -64 -6 -138 -10 -146 -7 -165 -9 -285 -31 -199
-36 -363 -101 -527 -207 -154 -101 -245 -199 -317 -344 -93 -186 -119 -400
-76 -618 27 -137 125 -304 234 -401 119 -105 330 -212 498 -251 64 -15 284
-57 356 -68 77 -12 110 -18 131 -22 11 -2 80 -13 151 -24 72 -12 141 -23 155
-25 14 -3 45 -8 70 -11 152 -20 356 -77 462 -129 215 -106 309 -232 309 -413
0 -131 -67 -252 -190 -346 -250 -191 -815 -247 -1269 -125 -242 65 -396 187
-489 390 -17 36 -52 140 -58 169 0 3 -4 21 -8 40 -15 74 -17 86 -22 125 -8 65
-14 127 -14 168 l-1 37 -241 0 -241 0 7 -107 c3 -60 8 -119 10 -133 2 -14 6
-50 10 -80 4 -30 16 -91 26 -135 96 -410 315 -672 700 -839 133 -58 106 -56
835 -56 l673 0 73 26 c147 53 294 139 400 234 102 91 201 246 246 385 4 11 7
133 7 270 0 241 -1 252 -24 310 -80 199 -242 370 -446 473 -126 63 -315 112
-700 182 -128 23 -227 40 -263 46 -20 3 -44 7 -52 9 -8 2 -31 7 -50 10 -19 3
-71 12 -115 20 -44 8 -93 17 -110 20 -212 36 -372 101 -476 194 -104 93 -140
201 -113 341 13 71 49 152 92 208 76 100 281 207 477 248 208 44 456 37 725
-21 393 -84 554 -304 579 -792 1 -10 55 -13 236 -13 l235 0 1 23 c5 102 -3
253 -16 289 -2 7 -6 29 -9 48 -7 47 -39 152 -66 220 -116 291 -362 505 -710
615 -102 32 -91 29 -215 54 -137 27 -162 30 -305 36 -69 4 -130 8 -137 10 -6
2 -13 2 -15 1z"/>
</g>
</svg>
