<svg xmlns="http://www.w3.org/2000/svg" xmlns:xlink="http://www.w3.org/1999/xlink" version="1.1" x="0px" y="0px" viewBox="0 0 100 125" enable-background="new 0 0 100 100" xml:space="preserve"><g><path fill="#000000" d="M80,51c-1.657,0-3,1.343-3,3v10c0,4.963-4.038,9-9,9H32c-4.962,0-9-4.037-9-9V54c0-1.657-1.343-3-3-3s-3,1.343-3,3v10   c0,8.271,6.729,15,15,15h36c8.271,0,15-6.729,15-15V54C83,52.343,81.657,51,80,51z"/><path fill="#000000" d="M54,21.031h-8c-1.104,0-2,0.896-2,2v18.065h-9c-0.787,0-1.501,0.462-1.824,1.179c-0.322,0.718-0.194,1.559,0.327,2.147   l15,16.935c0.76,0.857,2.234,0.857,2.994,0l15-16.935c0.521-0.589,0.649-1.43,0.327-2.147c-0.323-0.717-1.037-1.179-1.824-1.179h-9   V23.031C56,21.926,55.104,21.031,54,21.031z"/></g></svg>