<svg version="1.1"  xmlns="http://www.w3.org/2000/svg" xmlns:xlink="http://www.w3.org/1999/xlink" x="0px" y="0px"
	 viewBox="0 0 19.797 19.796" enable-background="new 0 0 19.797 19.796" xml:space="preserve">
<g>

	<path id="Facebook" fill="#FFFFFF" d="M8.066,5.662c0,0.349,0,1.904,0,1.904H6.672v2.328h1.395v6.917h2.865V9.895h1.923
		c0,0,0.181-1.116,0.267-2.337c-0.249,0-2.178,0-2.178,0s0-1.354,0-1.592c0-0.238,0.312-0.558,0.62-0.558c0.308,0,0.958,0,1.562,0
		c0-0.317,0-1.412,0-2.424c-0.805,0-1.72,0-2.123,0C7.995,2.984,8.066,5.314,8.066,5.662z"/>
</g>
</svg>
