<svg version="1.1" xmlns="http://www.w3.org/2000/svg" xmlns:xlink="http://www.w3.org/1999/xlink" x="0px" y="0px"
	 viewBox="0 0 19.797 19.797" enable-background="new 0 0 19.797 19.797" xml:space="preserve">
<g>
	<g>
		<path fill="#FFFFFF" d="M9.898,4.212c1.853,0,2.072,0.007,2.803,0.041c0.678,0.031,1.044,0.144,1.289,0.239
			c0.301,0.111,0.574,0.289,0.797,0.519c0.23,0.224,0.408,0.496,0.52,0.797c0.095,0.245,0.207,0.612,0.238,1.288
			c0.033,0.731,0.041,0.951,0.041,2.803c0,1.852-0.008,2.071-0.041,2.803c-0.031,0.676-0.144,1.043-0.238,1.287
			c-0.234,0.605-0.712,1.084-1.316,1.316c-0.245,0.096-0.611,0.209-1.289,0.239c-0.73,0.033-0.95,0.04-2.803,0.04
			c-1.852,0-2.071-0.007-2.803-0.04c-0.676-0.03-1.043-0.144-1.288-0.239c-0.301-0.111-0.573-0.288-0.798-0.519
			c-0.23-0.224-0.407-0.497-0.519-0.798c-0.095-0.244-0.208-0.611-0.239-1.287c-0.033-0.732-0.039-0.951-0.039-2.803
			c0-1.853,0.006-2.072,0.039-2.803c0.031-0.676,0.145-1.043,0.239-1.288C4.603,5.506,4.779,5.234,5.01,5.01
			c0.225-0.23,0.497-0.408,0.798-0.519C6.053,4.396,6.42,4.283,7.096,4.252C7.828,4.219,8.047,4.212,9.898,4.212 M9.898,2.962
			c-1.883,0-2.119,0.008-2.859,0.042C6.301,3.038,5.797,3.155,5.355,3.326C4.893,3.5,4.473,3.773,4.127,4.126
			C3.773,4.473,3.5,4.892,3.326,5.355C3.155,5.796,3.038,6.3,3.005,7.039c-0.034,0.74-0.042,0.976-0.042,2.86s0.008,2.12,0.042,2.86
			c0.033,0.738,0.15,1.242,0.321,1.684c0.175,0.463,0.447,0.882,0.801,1.229c0.346,0.353,0.766,0.625,1.229,0.8
			c0.441,0.171,0.945,0.288,1.684,0.322c0.74,0.034,0.977,0.042,2.86,0.042s2.12-0.008,2.858-0.042
			c0.739-0.034,1.244-0.151,1.685-0.322c0.933-0.36,1.669-1.097,2.028-2.028c0.172-0.441,0.289-0.945,0.322-1.684
			c0.034-0.74,0.043-0.977,0.043-2.86s-0.009-2.12-0.043-2.86c-0.033-0.738-0.15-1.242-0.322-1.684
			c-0.174-0.463-0.447-0.882-0.8-1.229c-0.347-0.353-0.766-0.626-1.229-0.8c-0.44-0.171-0.945-0.289-1.685-0.322
			C12.02,2.97,11.783,2.962,9.898,2.962L9.898,2.962L9.898,2.962z"/>
		<path fill="#FFFFFF" d="M9.898,6.336c-1.967,0-3.562,1.595-3.562,3.562c0,1.968,1.595,3.562,3.562,3.562s3.562-1.594,3.562-3.562
			l0,0C13.461,7.931,11.865,6.336,9.898,6.336z M9.898,12.21c-1.276,0-2.312-1.034-2.312-2.312c0-1.277,1.035-2.312,2.312-2.312
			c1.277,0,2.312,1.035,2.312,2.312C12.211,11.176,11.176,12.21,9.898,12.21z"/>
		<circle fill="#FFFFFF" cx="13.602" cy="6.196" r="0.833"/>
	</g>
</g>
</svg>
