<svg version="1.1"  xmlns="http://www.w3.org/2000/svg" xmlns:xlink="http://www.w3.org/1999/xlink" x="0px" y="0px"
	  viewBox="0 0 262.192 64.809" enable-background="new 0 0 262.192 64.809"
	 xml:space="preserve">
<g>
	<path fill-rule="evenodd" clip-rule="evenodd" fill="#604f46" d="M153.02,14.571c0-4.817,0-9.667,0-14.571c1.357,0,2.671,0,4.051,0
		c0,13.783,0,27.566,0,41.427c-1.314,0-2.628,0-4.051,0c0-1.325,0-2.628,0-4.062c-0.176,0.11-0.24,0.143-0.307,0.197
		c-2.365,2.529-5.32,3.909-8.726,4.369c-2.824,0.371-5.628,0.273-8.353-0.592c-4.172-1.314-7.117-4.029-8.704-8.058
		c-1.872-4.741-1.872-9.579,0.055-14.298c2.036-5.002,5.944-7.816,11.254-8.594c3.755-0.558,7.467-0.329,10.894,1.5
		C150.502,12.611,151.684,13.641,153.02,14.571z M129.755,26.198c0,0.459-0.032,0.919,0.011,1.379
		c0.252,3.208,1.303,6.065,3.799,8.223c2.332,2.003,5.124,2.539,8.091,2.475c4.861-0.121,9.064-3.033,10.598-7.555
		c1.248-3.657,1.052-7.313-0.569-10.827c-1.161-2.518-3.099-4.303-5.759-5.134c-1.324-0.406-2.726-0.635-4.104-0.745
		c-4.938-0.383-8.979,1.96-10.949,6.284C130.018,22.169,129.711,24.162,129.755,26.198z"/>
	<path fill-rule="evenodd" clip-rule="evenodd" fill="#604f46" d="M118.599,15.119c0-1.281,0-2.671,0-4.116c1.391,0,2.748,0,4.139,0
		c0,10.137,0,20.265,0,30.446c-1.38,0-2.715,0-4.116,0c0-1.324,0-2.616,0-4.007c-0.164,0.099-0.252,0.132-0.307,0.187
		c-2.398,2.507-5.354,3.875-8.77,4.312c-3.339,0.428-6.646,0.241-9.776-1.127c-4.86-2.135-7.511-6.01-8.31-11.178
		c-0.525-3.427-0.329-6.832,1.073-10.062c2.091-4.828,5.823-7.62,10.98-8.473c3.744-0.613,7.467-0.438,10.926,1.292
		C115.905,13.126,117.209,14.188,118.599,15.119z M106.83,14.473c-5.244,0.121-9.087,2.617-10.696,7.149
		c-1.116,3.142-1.149,6.35-0.131,9.513c1.062,3.295,3.272,5.562,6.601,6.624c1.763,0.569,3.592,0.668,5.431,0.516
		c3.821-0.33,6.821-2.059,8.868-5.332c1.652-2.65,1.915-5.584,1.576-8.628c-0.504-4.478-3.252-7.958-7.4-9.108
		C109.698,14.823,108.253,14.703,106.83,14.473z"/>
	<path fill-rule="evenodd" clip-rule="evenodd" fill="#604f46" d="M55.802,35.854c1.467,1.369,2.879,2.704,4.302,4.04
		c0.613,0.569,0.625,0.569,0.471,1.512c-1.455,0-2.922,0.01-4.379-0.023c-0.208,0-0.427-0.207-0.602-0.36
		c-0.635-0.548-1.281-1.095-1.883-1.687c-0.351-0.36-0.603-0.339-1.041-0.088c-4.707,2.727-9.666,3.406-14.758,1.304
		c-5.112-2.103-7.969-6.24-8.9-11.55c-1.434-8.244,3.931-15.765,12.142-17.396c8.09-1.609,16.302,4.16,17.615,12.316
		c0.668,4.204-0.22,8.025-2.671,11.506C56.021,35.537,55.933,35.657,55.802,35.854z M41.613,28.584c1.588,0,2.945,0.077,4.281-0.033
		c1.225-0.099,2.134,0.285,2.988,1.161c1.171,1.193,2.463,2.266,3.711,3.404c2.518-3.273,3.482-9.853-1.391-14.473
		c-4.303-4.073-10.827-3.919-14.965,0.263c-4.161,4.182-4.292,10.772-0.22,15.129c4.182,4.479,10.269,4.26,13.762,1.829
		C47.108,33.478,44.438,31.103,41.613,28.584z"/>
	<path fill-rule="evenodd" clip-rule="evenodd" fill="#604f46" d="M258.141,15.359c0-1.533,0-2.934,0-4.379c1.38,0,2.693,0,4.052,0
		c0,10.148,0,20.275,0,30.457c-1.336,0-2.649,0-4.052,0c0-1.303,0-2.605,0-4.083c-0.568,0.514-0.963,0.908-1.4,1.28
		c-3.328,2.836-7.291,3.635-11.518,3.471c-3.152-0.132-6.087-0.931-8.67-2.825c-3.548-2.638-5.277-6.284-5.715-10.598
		c-0.307-3.054-0.066-6.065,1.116-8.933c2.058-4.916,5.802-7.751,11.014-8.639c3.547-0.602,7.071-0.416,10.422,1.008
		c0.854,0.361,1.687,0.843,2.452,1.368C256.608,14.013,257.287,14.659,258.141,15.359z M246.121,38.361
		c0.459-0.033,0.919-0.056,1.379-0.087c3.832-0.308,6.875-2.005,8.867-5.3c2.277-3.744,2.256-7.74,0.789-11.747
		c-1.073-3.011-3.24-5.036-6.328-5.934c-1.226-0.361-2.539-0.569-3.832-0.646c-3.284-0.197-6.284,0.548-8.78,2.891
		c-4.226,4.007-4.182,11.89-1.707,15.853C238.742,36.948,242.092,38.306,246.121,38.361z"/>
	<path fill-rule="evenodd" clip-rule="evenodd" fill="#604f46" d="M206.795,15.415c0-1.577,0-2.967,0-4.423c1.38,0,2.716,0,4.073,0
		c0,10.16,0,20.286,0,30.457c-1.357,0-2.671,0-4.051,0c0-1.324,0-2.605,0-4.007c-0.175,0.109-0.284,0.143-0.372,0.208
		c-2.387,2.529-5.364,3.854-8.758,4.291c-3.065,0.395-6.131,0.264-9.043-0.854c-5.233-1.992-8.103-5.923-9-11.353
		c-0.504-3.131-0.372-6.251,0.723-9.262c1.927-5.31,5.759-8.43,11.298-9.361c3.832-0.646,7.62-0.438,11.123,1.369
		c1.227,0.624,2.278,1.587,3.417,2.397C206.379,14.998,206.511,15.151,206.795,15.415z M195.059,14.451
		c-5.43,0.143-9.327,2.781-10.882,7.543c-0.766,2.332-0.876,4.741-0.481,7.139c0.701,4.225,2.934,7.269,7.117,8.637
		c1.773,0.581,3.59,0.669,5.43,0.505c4.16-0.385,7.335-2.333,9.218-6.056c1.948-3.854,1.795-7.827,0.065-11.725
		c-1.16-2.65-3.24-4.423-6.021-5.211C198.06,14.878,196.549,14.725,195.059,14.451z"/>
	<path fill-rule="evenodd" clip-rule="evenodd" fill="#604f46" d="M26.658,22.278c-1.391,0-2.748,0-4.193,0
		c-0.055-0.591-0.076-1.193-0.164-1.773c-0.405-3.022-1.905-4.741-4.904-5.398c-3.132-0.689-6.273-0.799-9.24,0.712
		c-1.27,0.646-2.189,1.631-2.485,3.098c-0.307,1.467,0.175,2.606,1.38,3.449c1.193,0.843,2.572,1.182,3.974,1.435
		c2.912,0.536,5.835,0.996,8.726,1.62c2.003,0.427,3.854,1.292,5.266,2.824c3.088,3.372,2.42,8.879-1.368,11.572
		c-1.96,1.391-4.193,2.025-6.547,2.255c-3.055,0.296-6.109,0.263-9.087-0.613c-4.619-1.368-7.115-4.532-7.795-9.217
		C0.099,31.344,0.076,30.423,0,29.45c1.479,0,2.846,0,4.247,0c0.077,0.788,0.099,1.555,0.23,2.31
		C5.113,35.525,6.81,37.288,10.564,38c2.803,0.536,5.605,0.525,8.354-0.328c1.095-0.339,2.091-0.876,2.835-1.774
		c1.413-1.696,1.149-4.04-0.634-5.331c-1.566-1.128-3.384-1.566-5.256-1.862c-2.562-0.405-5.135-0.799-7.674-1.324
		c-1.041-0.208-2.059-0.679-3.012-1.172c-5.232-2.693-4.718-9.667-1.193-12.535c2.025-1.642,4.358-2.518,6.931-2.781
		c3.099-0.306,6.163-0.142,9.119,0.909c4.128,1.478,6.208,4.521,6.612,8.791C26.701,21.14,26.658,21.688,26.658,22.278z"/>
	<path fill-rule="evenodd" clip-rule="evenodd" fill="#604f46" d="M84.584,11.353c1.532,0,2.923,0,4.391,0c0,0.317,0,0.602,0,0.887
		c0,6.7-0.1,13.389,0.032,20.089c0.076,4.27-1.861,7.16-5.562,8.889c-5.573,2.606-11.232,2.585-16.783-0.142
		c-2.584-1.271-4.467-3.24-5.059-6.208c-0.109-0.536-0.143-1.095-0.143-1.642c-0.01-7.04-0.01-14.068-0.01-21.107
		c0-0.23,0.021-0.471,0.043-0.755c1.445,0,2.848,0,4.347,0c0,0.295,0,0.58,0,0.865c0,6.963,0.011,13.926-0.011,20.878
		c-0.011,1.521,0.591,2.649,1.752,3.524c1.816,1.369,3.919,1.927,6.131,2.135c2.758,0.274,5.43-0.108,7.926-1.379
		c1.959-0.997,3.011-2.475,2.978-4.828c-0.087-6.744-0.032-13.488-0.032-20.231C84.584,12.021,84.584,11.714,84.584,11.353z"/>
	<path fill-rule="evenodd" clip-rule="evenodd" fill="#604f46" d="M224.027,41.415c-1.445,0-2.78,0-4.27,0c0-8.78,0-17.538,0-26.373
		c-2.211,0-4.313,0-6.438,0c0-1.369,0-2.66,0-4.029c2.08,0,4.16,0,6.35,0c0-3.098,0-6.109,0-9.164c1.489,0,2.869,0,4.336,0
		c0,3.011,0,6.01,0,9.087c2.189,0,4.291,0,6.459,0c0,1.379,0,2.683,0,4.094c-2.124,0-4.248,0-6.438,0
		C224.027,23.877,224.027,32.613,224.027,41.415z"/>
	<path fill-rule="evenodd" clip-rule="evenodd" fill="#604f46" d="M165.916,41.427c-1.401,0-2.693,0-4.051,0
		c0-9.952,0-19.893,0-29.877c1.291,0,2.605,0,4.007,0c0,1.215,0,2.452,0,3.919c3.7-3.689,8.167-4.598,13.007-4.653
		c0,1.281,0,2.485,0,3.711c-1.183,0.12-2.321,0.187-3.46,0.383c-4.905,0.833-7.686,3.931-8.78,8.616
		c-0.438,1.851-0.635,3.799-0.701,5.704c-0.109,3.777-0.021,7.565-0.021,11.343C165.916,40.835,165.916,41.099,165.916,41.427z"/>
	<path fill-rule="evenodd" clip-rule="evenodd"  fill="#604f46" d="M261.557,57.75c-4.488,0-8.889,0-13.268,0c-0.352,1.938,0.854,4.411,2.671,5.211
		c2.386,1.052,4.795,1.019,7.05-0.351c0.657-0.394,1.205-1.039,1.621-1.696c0.371-0.591,0.7-0.854,1.423-0.613
		c-0.307,1.105-0.897,2.003-1.752,2.727c-2.386,2.024-7.378,2.112-9.831,0.186c-1.401-1.095-2.036-2.595-2.256-4.303
		c-0.283-2.397,0.022-4.663,1.752-6.536c1.095-1.182,2.452-1.839,4.029-2.024c2.277-0.274,4.444-0.044,6.306,1.423
		C261.186,53.272,261.688,55.33,261.557,57.75z M260.266,56.765c0.263-3.011-2.256-5.463-5.715-5.584
		c-3.57-0.12-6.372,2.354-6.306,5.584C252.229,56.765,256.215,56.765,260.266,56.765z"/>
	<path fill-rule="evenodd" clip-rule="evenodd"  fill="#604f46" d="M148.849,57.739c-4.456,0-8.847,0-13.236,0c-0.46,2.77,1.488,5.31,4.434,5.791
		c1.642,0.263,3.263,0.153,4.784-0.613c0.931-0.459,1.73-1.095,2.156-2.047c0.318-0.689,0.756-0.756,1.402-0.569
		c-0.657,2.102-2.092,3.36-4.149,3.94c-1.632,0.449-3.284,0.482-4.927,0.11c-2.628-0.591-4.215-2.255-4.664-4.894
		c-0.525-3.076-0.121-5.901,2.584-7.904c2.846-2.125,7.718-1.676,10.094,0.887C148.695,53.918,149.001,55.725,148.849,57.739z
		 M135.568,56.743c4.062,0,8.058,0,12.064,0c-0.131-3.504-2.572-5.683-6.152-5.562C138.054,51.302,135.492,53.688,135.568,56.743z"
		/>
	<path fill-rule="evenodd" clip-rule="evenodd"  fill="#604f46" d="M13.51,53.207c0-0.941,0-1.872,0-2.857c0.339,0,0.635,0,0.975,0
		c0,4.62,0,9.229,0,13.882c-0.307,0-0.603,0-0.985,0c0-0.909,0-1.807,0-2.705c-1.643,2.332-3.909,3.153-6.603,3.055
		c-1.883-0.076-3.524-0.679-4.828-2.09c-2.518-2.705-2.364-7.949,0.329-10.479c1.653-1.555,3.679-1.883,5.835-1.729
		c2.189,0.153,3.964,1.062,5.124,3.032C13.41,53.272,13.466,53.239,13.51,53.207z M1.357,58.374c0.033,1.576,0.821,3.7,3.24,4.719
		c2.431,1.028,4.851,0.832,6.887-0.996c2.113-1.895,2.397-4.357,1.653-6.952c-1.029-3.536-4.435-4.412-7.423-3.776
		C2.978,51.958,1.357,54.302,1.357,58.374z"/>
	<path fill-rule="evenodd" clip-rule="evenodd" fill="#604f46"  d="M73.657,45.269c0.329,0,0.613,0,0.985,0c0,2.441,0,4.873,0,7.445
		c2.256-2.857,5.102-3.021,8.124-2.156c2.146,0.623,3.186,2.211,3.186,4.444c0.011,3.055,0,6.109,0,9.218c-0.328,0-0.636,0-1.028,0
		c0-0.24,0-0.492,0-0.755c0-2.639,0-5.299-0.012-7.948c0-2.727-1.5-4.292-4.248-4.423c-1.324-0.056-2.605,0.087-3.733,0.854
		c-1.543,1.039-2.243,2.539-2.266,4.356c-0.033,2.573-0.011,5.156-0.011,7.729c0,0.043-0.022,0.087-0.044,0.186
		c-0.284,0-0.592,0-0.953,0C73.657,57.946,73.657,51.652,73.657,45.269z"/>
	<path fill-rule="evenodd" clip-rule="evenodd"  fill="#604f46" d="M173.338,59.721c0.329,0.132,0.613,0.252,0.941,0.383
		c-0.218,1.237-0.854,2.2-1.772,2.978c-2.628,2.212-7.796,1.971-10.203-0.471c-1.577-1.587-2.036-3.58-1.817-5.715
		c0.547-5.332,5.715-8.243,10.663-6.043c1.511,0.668,2.518,1.796,2.978,3.471c-0.307,0.153-0.592,0.295-0.876,0.438
		c-0.065-0.066-0.108-0.089-0.132-0.132c-1.007-3.197-3.809-3.788-6.656-3.295c-2.912,0.492-4.729,2.649-4.904,5.605
		c-0.152,2.145,0.285,4.072,2.08,5.484c2.059,1.621,5.846,1.643,7.949,0.055C172.31,61.921,172.507,61.614,173.338,59.721z"/>
	<path fill-rule="evenodd" clip-rule="evenodd" fill="#604f46"  d="M59.819,54.739c-1.488-2.956-2.944-3.756-5.999-3.515
		c-3.34,0.264-5.891,2.683-5.683,6.832c0.12,2.233,1.019,4.051,3.142,4.959c2.289,0.997,4.6,0.931,6.767-0.438
		c1.007-0.636,1.532-1.632,1.839-2.857c0.361,0.132,0.679,0.252,1.029,0.383c-0.525,2.212-1.938,3.504-3.985,4.116
		c-1.784,0.548-3.623,0.537-5.408-0.043c-2.55-0.833-4.04-2.627-4.368-5.299c-0.35-2.857,0.176-5.507,2.704-7.248
		c2.595-1.773,5.452-1.872,8.31-0.569c1.029,0.472,1.773,1.303,2.256,2.343C60.849,54.334,60.849,54.334,59.819,54.739z"/>
	<path fill-rule="evenodd" clip-rule="evenodd"  fill="#604f46" d="M206.511,51.258c0.395,0,0.679,0,1.052,0c0,0.296,0,0.559,0,0.811
		c0,2.802,0,5.595-0.023,8.386c-0.021,1.183,0.461,2.059,1.512,2.584c1.883,0.975,3.832,0.984,5.737,0.011
		c1.05-0.515,1.532-1.38,1.511-2.573c-0.022-2.77,0-5.539,0-8.309c0-0.285,0-0.559,0-0.898c0.372,0,0.678,0,1.007,0
		c0,3.404,0.065,6.788-0.021,10.182c-0.044,1.139-0.897,1.96-1.905,2.475c-2.299,1.171-4.642,1.193-6.919-0.022
		c-1.292-0.679-1.971-1.763-1.949-3.284c0.022-2.857,0-5.726,0-8.594C206.511,51.794,206.511,51.554,206.511,51.258z"/>
	<path fill-rule="evenodd" clip-rule="evenodd" fill="#604f46"  d="M188.863,52.243c-1.096,0-2.015,0-2.979,0c0-0.351,0-0.635,0-0.975
		c0.941,0,1.861,0,2.869,0c0-1.401,0-2.759,0-4.16c0.394,0,0.7,0,1.094,0c0,1.357,0,2.715,0,4.139c1.029,0,1.949,0,2.912,0
		c0,0.361,0,0.635,0,0.996c-0.941,0-1.883,0-2.889,0c0,4.028,0,7.992,0,11.988c-0.352,0-0.636,0-1.008,0
		C188.863,60.29,188.863,56.338,188.863,52.243z"/>
	<path fill-rule="evenodd" clip-rule="evenodd"  fill="#604f46" d="M120.153,51.247c1.029,0,1.938,0,2.901,0c0,0.34,0,0.635,0,0.985
		c-0.931,0-1.839,0-2.857,0c0,4.028,0,8.003,0,12.009c-0.383,0-0.668,0-1.04,0c0-3.974,0-7.914,0-11.965c-1.019,0-1.938,0-2.913,0
		c0-0.373,0-0.646,0-0.997c0.91,0,1.818,0,2.826,0c0-1.423,0-2.78,0-4.171c0.404,0,0.7,0,1.083,0
		C120.153,48.455,120.153,49.802,120.153,51.247z"/>
	<path fill-rule="evenodd" clip-rule="evenodd"  fill="#604f46" d="M229.436,64.241c-0.394,0-0.679,0-1.007,0c0-4.521,0-9.053,0-13.619
		c0.284,0,0.569,0,0.964,0c0,0.844,0,1.688,0,2.529c1.619-2.113,3.723-2.879,6.262-2.891c0,0.318,0,0.57,0,0.865
		c-0.481,0.066-0.964,0.099-1.423,0.197c-2.452,0.481-4.139,2.233-4.533,5.059c-0.263,1.828-0.196,3.7-0.263,5.551
		C229.393,62.677,229.436,63.421,229.436,64.241z"/>
	<path fill-rule="evenodd" clip-rule="evenodd" fill="#604f46"  d="M29.133,64.241c-0.395,0-0.668,0-0.997,0c0-4.543,0-9.053,0-13.607
		c0.317,0,0.613,0,0.985,0c0,0.854,0,1.686,0,2.408c0.909-0.689,1.764-1.479,2.748-2.059c1.019-0.602,2.212-0.744,3.459-0.711
		c0,0.296,0,0.559,0,0.876c-0.47,0.054-0.919,0.076-1.367,0.164c-2.398,0.46-3.767,2.025-4.379,4.28
		c-0.274,1.029-0.385,2.135-0.428,3.208C29.089,60.597,29.133,62.392,29.133,64.241z"/>
	<path fill-rule="evenodd" clip-rule="evenodd" fill="#604f46"  d="M100.842,64.253c-0.361,0-0.646,0-0.985,0c0-4.335,0-8.648,0-12.995
		c0.339,0,0.646,0,0.985,0C100.842,55.604,100.842,59.896,100.842,64.253z"/>
</g>
</svg>
