<?xml version="1.0" encoding="utf-8"?>
<!-- Generator: Adobe Illustrator 16.0.0, SVG Export Plug-In . SVG Version: 6.00 Build 0)  -->
<!DOCTYPE svg PUBLIC "-//W3C//DTD SVG 1.1//EN" "http://www.w3.org/Graphics/SVG/1.1/DTD/svg11.dtd">
<svg version="1.1" id="Layer_1" xmlns="http://www.w3.org/2000/svg" xmlns:xlink="http://www.w3.org/1999/xlink" x="0px" y="0px"
	 width="262.192px" height="64.808px" viewBox="0 0 262.192 64.808" enable-background="new 0 0 262.192 64.808"
	 xml:space="preserve">
<g>
	<path fill-rule="evenodd" clip-rule="evenodd" fill="#FFFFFF" d="M153.02,14.57c0-4.816,0-9.666,0-14.57c1.357,0,2.671,0,4.051,0
		c0,13.783,0,27.566,0,41.426c-1.314,0-2.628,0-4.051,0c0-1.324,0-2.627,0-4.061c-0.176,0.109-0.24,0.141-0.307,0.197
		c-2.365,2.527-5.32,3.908-8.726,4.367c-2.824,0.371-5.628,0.273-8.353-0.592c-4.172-1.312-7.117-4.029-8.704-8.057
		c-1.872-4.741-1.872-9.58,0.055-14.299c2.036-5.003,5.944-7.816,11.254-8.594c3.755-0.558,7.467-0.328,10.894,1.5
		C150.502,12.611,151.684,13.641,153.02,14.57z M129.755,26.198c0,0.46-0.032,0.919,0.011,1.379
		c0.252,3.208,1.303,6.066,3.799,8.222c2.332,2.004,5.124,2.541,8.091,2.475c4.861-0.121,9.064-3.033,10.598-7.555
		c1.248-3.656,1.052-7.312-0.569-10.826c-1.161-2.519-3.099-4.304-5.759-5.135c-1.324-0.406-2.726-0.635-4.104-0.745
		c-4.938-0.384-8.979,1.96-10.949,6.284C130.018,22.169,129.711,24.162,129.755,26.198z"/>
	<path fill-rule="evenodd" clip-rule="evenodd" fill="#FFFFFF" d="M118.599,15.119c0-1.281,0-2.672,0-4.117c1.391,0,2.748,0,4.139,0
		c0,10.138,0,20.266,0,30.448c-1.38,0-2.715,0-4.116,0c0-1.326,0-2.617,0-4.008c-0.164,0.098-0.252,0.131-0.307,0.186
		c-2.398,2.508-5.354,3.875-8.77,4.314c-3.339,0.426-6.646,0.24-9.776-1.129c-4.86-2.135-7.511-6.01-8.31-11.177
		c-0.525-3.427-0.329-6.831,1.073-10.062c2.091-4.828,5.823-7.619,10.98-8.473c3.744-0.613,7.467-0.438,10.926,1.291
		C115.905,13.126,117.209,14.188,118.599,15.119z M106.83,14.473c-5.244,0.121-9.087,2.617-10.696,7.149
		c-1.116,3.142-1.149,6.35-0.131,9.513c1.062,3.295,3.272,5.563,6.601,6.624c1.763,0.57,3.592,0.668,5.431,0.516
		c3.821-0.328,6.821-2.059,8.868-5.332c1.652-2.649,1.915-5.584,1.576-8.628c-0.504-4.478-3.252-7.96-7.4-9.108
		C109.698,14.823,108.253,14.703,106.83,14.473z"/>
	<path fill-rule="evenodd" clip-rule="evenodd" fill="#FFFFFF" d="M55.802,35.854c1.467,1.369,2.879,2.705,4.302,4.041
		c0.613,0.568,0.625,0.568,0.471,1.51c-1.455,0-2.922,0.012-4.379-0.021c-0.208,0-0.427-0.209-0.602-0.361
		c-0.635-0.547-1.281-1.096-1.883-1.686c-0.351-0.361-0.603-0.34-1.041-0.088c-4.707,2.725-9.666,3.404-14.758,1.303
		c-5.112-2.104-7.969-6.24-8.9-11.551c-1.434-8.243,3.931-15.764,12.142-17.396c8.09-1.609,16.302,4.16,17.615,12.316
		c0.668,4.204-0.22,8.024-2.671,11.505C56.021,35.538,55.933,35.657,55.802,35.854z M41.613,28.584c1.588,0,2.945,0.077,4.281-0.032
		c1.225-0.099,2.134,0.284,2.988,1.161c1.171,1.193,2.463,2.266,3.711,3.405c2.518-3.274,3.482-9.854-1.391-14.474
		c-4.303-4.073-10.827-3.919-14.965,0.263c-4.161,4.183-4.292,10.773-0.22,15.129c4.182,4.479,10.269,4.26,13.762,1.83
		C47.108,33.479,44.438,31.103,41.613,28.584z"/>
	<path fill-rule="evenodd" clip-rule="evenodd" fill="#FFFFFF" d="M258.141,15.359c0-1.533,0-2.934,0-4.38c1.38,0,2.693,0,4.052,0
		c0,10.149,0,20.276,0,30.458c-1.336,0-2.649,0-4.052,0c0-1.303,0-2.605,0-4.084c-0.568,0.514-0.963,0.908-1.4,1.281
		c-3.328,2.836-7.291,3.635-11.518,3.469c-3.152-0.131-6.087-0.93-8.67-2.822c-3.548-2.639-5.277-6.285-5.715-10.599
		c-0.307-3.054-0.066-6.065,1.116-8.933c2.058-4.916,5.802-7.751,11.014-8.639c3.547-0.602,7.071-0.416,10.422,1.008
		c0.854,0.36,1.687,0.843,2.452,1.368C256.608,14.013,257.287,14.659,258.141,15.359z M246.121,38.362
		c0.459-0.033,0.919-0.055,1.379-0.088c3.832-0.307,6.875-2.004,8.867-5.299c2.277-3.746,2.256-7.741,0.789-11.748
		c-1.073-3.011-3.24-5.036-6.328-5.934c-1.226-0.361-2.539-0.569-3.832-0.647c-3.284-0.195-6.284,0.549-8.78,2.892
		c-4.226,4.007-4.182,11.89-1.707,15.853C238.742,36.95,242.092,38.307,246.121,38.362z"/>
	<path fill-rule="evenodd" clip-rule="evenodd" fill="#FFFFFF" d="M206.795,15.414c0-1.576,0-2.967,0-4.423c1.38,0,2.716,0,4.073,0
		c0,10.159,0,20.286,0,30.458c-1.357,0-2.671,0-4.051,0c0-1.326,0-2.607,0-4.008c-0.175,0.109-0.284,0.143-0.372,0.207
		c-2.387,2.529-5.364,3.854-8.758,4.293c-3.065,0.393-6.131,0.262-9.043-0.854c-5.233-1.994-8.103-5.924-9-11.354
		c-0.504-3.131-0.372-6.252,0.723-9.262c1.927-5.311,5.759-8.43,11.298-9.361c3.832-0.646,7.62-0.438,11.123,1.368
		c1.227,0.625,2.278,1.588,3.417,2.398C206.379,14.998,206.511,15.151,206.795,15.414z M195.059,14.451
		c-5.43,0.143-9.327,2.781-10.882,7.543c-0.766,2.332-0.876,4.74-0.481,7.139c0.701,4.225,2.934,7.268,7.117,8.637
		c1.773,0.58,3.59,0.668,5.43,0.504c4.16-0.383,7.335-2.332,9.218-6.055c1.948-3.854,1.795-7.827,0.065-11.725
		c-1.16-2.65-3.24-4.423-6.021-5.211C198.06,14.878,196.549,14.725,195.059,14.451z"/>
	<path fill-rule="evenodd" clip-rule="evenodd" fill="#FFFFFF" d="M26.658,22.278c-1.391,0-2.748,0-4.193,0
		c-0.055-0.591-0.076-1.192-0.164-1.772c-0.405-3.022-1.905-4.741-4.904-5.398c-3.132-0.689-6.273-0.799-9.24,0.712
		c-1.27,0.646-2.189,1.632-2.485,3.099c-0.307,1.467,0.175,2.605,1.38,3.448c1.193,0.843,2.572,1.183,3.974,1.435
		c2.912,0.536,5.835,0.996,8.726,1.62c2.003,0.427,3.854,1.292,5.266,2.824c3.088,3.372,2.42,8.878-1.368,11.572
		c-1.96,1.391-4.193,2.025-6.547,2.256c-3.055,0.295-6.109,0.262-9.087-0.613c-4.619-1.369-7.115-4.533-7.795-9.217
		C0.099,31.344,0.076,30.424,0,29.449c1.479,0,2.846,0,4.247,0c0.077,0.789,0.099,1.555,0.23,2.311
		C5.113,35.526,6.81,37.288,10.564,38c2.803,0.535,5.605,0.525,8.354-0.328c1.095-0.34,2.091-0.877,2.835-1.773
		c1.413-1.697,1.149-4.042-0.634-5.333c-1.566-1.129-3.384-1.566-5.256-1.861c-2.562-0.405-5.135-0.8-7.674-1.324
		c-1.041-0.208-2.059-0.68-3.012-1.172c-5.232-2.693-4.718-9.667-1.193-12.535c2.025-1.643,4.358-2.519,6.931-2.781
		c3.099-0.307,6.163-0.143,9.119,0.909c4.128,1.478,6.208,4.521,6.612,8.791C26.701,21.14,26.658,21.688,26.658,22.278z"/>
	<path fill-rule="evenodd" clip-rule="evenodd" fill="#FFFFFF" d="M84.584,11.353c1.532,0,2.923,0,4.391,0c0,0.317,0,0.603,0,0.888
		c0,6.699-0.1,13.389,0.032,20.089c0.076,4.269-1.861,7.16-5.562,8.89c-5.573,2.605-11.232,2.584-16.783-0.143
		c-2.584-1.271-4.467-3.24-5.059-6.207c-0.109-0.537-0.143-1.096-0.143-1.643c-0.01-7.041-0.01-14.069-0.01-21.108
		c0-0.23,0.021-0.471,0.043-0.756c1.445,0,2.848,0,4.347,0c0,0.296,0,0.58,0,0.865c0,6.963,0.011,13.926-0.011,20.877
		c-0.011,1.521,0.591,2.65,1.752,3.525c1.816,1.369,3.919,1.928,6.131,2.135c2.758,0.273,5.43-0.109,7.926-1.379
		c1.959-0.996,3.011-2.475,2.978-4.829c-0.087-6.744-0.032-13.488-0.032-20.231C84.584,12.021,84.584,11.714,84.584,11.353z"/>
	<path fill-rule="evenodd" clip-rule="evenodd" fill="#FFFFFF" d="M224.027,41.417c-1.445,0-2.78,0-4.27,0c0-8.782,0-17.54,0-26.375
		c-2.211,0-4.313,0-6.438,0c0-1.368,0-2.66,0-4.028c2.08,0,4.16,0,6.35,0c0-3.099,0-6.109,0-9.164c1.489,0,2.869,0,4.336,0
		c0,3.011,0,6.01,0,9.087c2.189,0,4.291,0,6.459,0c0,1.379,0,2.683,0,4.095c-2.124,0-4.248,0-6.438,0
		C224.027,23.877,224.027,32.613,224.027,41.417z"/>
	<path fill-rule="evenodd" clip-rule="evenodd" fill="#FFFFFF" d="M165.916,41.426c-1.401,0-2.693,0-4.051,0
		c0-9.952,0-19.892,0-29.876c1.291,0,2.605,0,4.007,0c0,1.215,0,2.452,0,3.919c3.7-3.689,8.167-4.598,13.007-4.652
		c0,1.28,0,2.484,0,3.711c-1.183,0.119-2.321,0.187-3.46,0.383c-4.905,0.832-7.686,3.931-8.78,8.616
		c-0.438,1.851-0.635,3.799-0.701,5.703c-0.109,3.779-0.021,7.566-0.021,11.343C165.916,40.836,165.916,41.098,165.916,41.426z"/>
	<path fill-rule="evenodd" clip-rule="evenodd" d="M261.557,57.75c-4.488,0-8.889,0-13.268,0c-0.352,1.938,0.854,4.412,2.671,5.211
		c2.386,1.051,4.795,1.018,7.05-0.35c0.657-0.395,1.205-1.041,1.621-1.697c0.371-0.592,0.7-0.854,1.423-0.613
		c-0.307,1.105-0.897,2.002-1.752,2.727c-2.386,2.025-7.378,2.111-9.831,0.186c-1.401-1.096-2.036-2.596-2.256-4.303
		c-0.283-2.398,0.022-4.664,1.752-6.535c1.095-1.184,2.452-1.84,4.029-2.025c2.277-0.273,4.444-0.045,6.306,1.422
		C261.186,53.272,261.688,55.331,261.557,57.75z M260.266,56.764c0.263-3.01-2.256-5.463-5.715-5.582
		c-3.57-0.121-6.372,2.354-6.306,5.582C252.229,56.764,256.215,56.764,260.266,56.764z"/>
	<path fill-rule="evenodd" clip-rule="evenodd" d="M148.849,57.739c-4.456,0-8.847,0-13.236,0c-0.46,2.77,1.488,5.311,4.434,5.791
		c1.642,0.264,3.263,0.154,4.784-0.613c0.931-0.459,1.73-1.094,2.156-2.047c0.318-0.689,0.756-0.754,1.402-0.568
		c-0.657,2.102-2.092,3.361-4.149,3.941c-1.632,0.449-3.284,0.482-4.927,0.109c-2.628-0.592-4.215-2.256-4.664-4.895
		c-0.525-3.076-0.121-5.9,2.584-7.904c2.846-2.123,7.718-1.674,10.094,0.887C148.695,53.918,149.001,55.725,148.849,57.739z
		 M135.568,56.743c4.062,0,8.058,0,12.064,0c-0.131-3.504-2.572-5.682-6.152-5.561C138.054,51.301,135.492,53.688,135.568,56.743z"
		/>
	<path fill-rule="evenodd" clip-rule="evenodd" d="M13.51,53.208c0-0.941,0-1.873,0-2.857c0.339,0,0.635,0,0.975,0
		c0,4.619,0,9.229,0,13.881c-0.307,0-0.603,0-0.985,0c0-0.908,0-1.807,0-2.705c-1.643,2.332-3.909,3.154-6.603,3.055
		c-1.883-0.076-3.524-0.678-4.828-2.09c-2.518-2.705-2.364-7.947,0.329-10.477c1.653-1.555,3.679-1.883,5.835-1.73
		c2.189,0.152,3.964,1.062,5.124,3.033C13.41,53.272,13.466,53.239,13.51,53.208z M1.357,58.374c0.033,1.576,0.821,3.701,3.24,4.719
		c2.431,1.029,4.851,0.832,6.887-0.996c2.113-1.895,2.397-4.357,1.653-6.951c-1.029-3.537-4.435-4.412-7.423-3.777
		C2.978,51.959,1.357,54.301,1.357,58.374z"/>
	<path fill-rule="evenodd" clip-rule="evenodd" d="M73.657,45.27c0.329,0,0.613,0,0.985,0c0,2.441,0,4.871,0,7.443
		c2.256-2.857,5.102-3.021,8.124-2.156c2.146,0.625,3.186,2.211,3.186,4.445c0.011,3.055,0,6.109,0,9.217c-0.328,0-0.636,0-1.028,0
		c0-0.24,0-0.492,0-0.754c0-2.639,0-5.299-0.012-7.949c0-2.725-1.5-4.291-4.248-4.422c-1.324-0.055-2.605,0.088-3.733,0.854
		c-1.543,1.041-2.243,2.539-2.266,4.357c-0.033,2.572-0.011,5.156-0.011,7.729c0,0.045-0.022,0.088-0.044,0.186
		c-0.284,0-0.592,0-0.953,0C73.657,57.948,73.657,51.653,73.657,45.27z"/>
	<path fill-rule="evenodd" clip-rule="evenodd" d="M173.338,59.721c0.329,0.131,0.613,0.252,0.941,0.383
		c-0.218,1.236-0.854,2.199-1.772,2.977c-2.628,2.213-7.796,1.973-10.203-0.469c-1.577-1.588-2.036-3.582-1.817-5.717
		c0.547-5.33,5.715-8.242,10.663-6.041c1.511,0.666,2.518,1.795,2.978,3.469c-0.307,0.154-0.592,0.297-0.876,0.439
		c-0.065-0.066-0.108-0.088-0.132-0.133c-1.007-3.195-3.809-3.787-6.656-3.295c-2.912,0.492-4.729,2.65-4.904,5.605
		c-0.152,2.146,0.285,4.072,2.08,5.484c2.059,1.621,5.846,1.643,7.949,0.055C172.31,61.92,172.507,61.616,173.338,59.721z"/>
	<path fill-rule="evenodd" clip-rule="evenodd" d="M59.819,54.739c-1.488-2.955-2.944-3.754-5.999-3.514
		c-3.34,0.264-5.891,2.682-5.683,6.832c0.12,2.232,1.019,4.051,3.142,4.959c2.289,0.996,4.6,0.932,6.767-0.438
		c1.007-0.635,1.532-1.633,1.839-2.857c0.361,0.131,0.679,0.252,1.029,0.383c-0.525,2.211-1.938,3.504-3.985,4.115
		c-1.784,0.549-3.623,0.537-5.408-0.043c-2.55-0.832-4.04-2.627-4.368-5.299c-0.35-2.857,0.176-5.506,2.704-7.246
		c2.595-1.775,5.452-1.873,8.31-0.57c1.029,0.471,1.773,1.303,2.256,2.344C60.849,54.334,60.849,54.334,59.819,54.739z"/>
	<path fill-rule="evenodd" clip-rule="evenodd" d="M206.511,51.258c0.395,0,0.679,0,1.052,0c0,0.295,0,0.559,0,0.811
		c0,2.803,0,5.594-0.023,8.385c-0.021,1.184,0.461,2.059,1.512,2.584c1.883,0.975,3.832,0.984,5.737,0.012
		c1.05-0.516,1.532-1.379,1.511-2.572c-0.022-2.771,0-5.541,0-8.311c0-0.285,0-0.559,0-0.896c0.372,0,0.678,0,1.007,0
		c0,3.404,0.065,6.787-0.021,10.182c-0.044,1.137-0.897,1.959-1.905,2.473c-2.299,1.172-4.642,1.193-6.919-0.021
		c-1.292-0.68-1.971-1.764-1.949-3.285c0.022-2.857,0-5.725,0-8.594C206.511,51.795,206.511,51.553,206.511,51.258z"/>
	<path fill-rule="evenodd" clip-rule="evenodd" d="M188.863,52.243c-1.096,0-2.015,0-2.979,0c0-0.35,0-0.635,0-0.973
		c0.941,0,1.861,0,2.869,0c0-1.402,0-2.76,0-4.162c0.394,0,0.7,0,1.094,0c0,1.357,0,2.715,0,4.139c1.029,0,1.949,0,2.912,0
		c0,0.361,0,0.635,0,0.996c-0.941,0-1.883,0-2.889,0c0,4.029,0,7.992,0,11.988c-0.352,0-0.636,0-1.008,0
		C188.863,60.29,188.863,56.338,188.863,52.243z"/>
	<path fill-rule="evenodd" clip-rule="evenodd" d="M120.153,51.247c1.029,0,1.938,0,2.901,0c0,0.34,0,0.635,0,0.986
		c-0.931,0-1.839,0-2.857,0c0,4.029,0,8.002,0,12.01c-0.383,0-0.668,0-1.04,0c0-3.975,0-7.916,0-11.967c-1.019,0-1.938,0-2.913,0
		c0-0.373,0-0.645,0-0.996c0.91,0,1.818,0,2.826,0c0-1.424,0-2.781,0-4.172c0.404,0,0.7,0,1.083,0
		C120.153,48.456,120.153,49.801,120.153,51.247z"/>
	<path fill-rule="evenodd" clip-rule="evenodd" d="M229.436,64.243c-0.394,0-0.679,0-1.007,0c0-4.521,0-9.055,0-13.619
		c0.284,0,0.569,0,0.964,0c0,0.842,0,1.686,0,2.529c1.619-2.113,3.723-2.881,6.262-2.891c0,0.316,0,0.568,0,0.863
		c-0.481,0.066-0.964,0.1-1.423,0.197c-2.452,0.482-4.139,2.234-4.533,5.059c-0.263,1.828-0.196,3.701-0.263,5.551
		C229.393,62.676,229.436,63.42,229.436,64.243z"/>
	<path fill-rule="evenodd" clip-rule="evenodd" d="M29.133,64.243c-0.395,0-0.668,0-0.997,0c0-4.543,0-9.055,0-13.609
		c0.317,0,0.613,0,0.985,0c0,0.855,0,1.686,0,2.408c0.909-0.689,1.764-1.477,2.748-2.057c1.019-0.604,2.212-0.744,3.459-0.713
		c0,0.297,0,0.559,0,0.877c-0.47,0.055-0.919,0.076-1.367,0.164c-2.398,0.459-3.767,2.025-4.379,4.279
		c-0.274,1.031-0.385,2.137-0.428,3.209C29.089,60.596,29.133,62.393,29.133,64.243z"/>
	<path fill-rule="evenodd" clip-rule="evenodd" d="M100.842,64.252c-0.361,0-0.646,0-0.985,0c0-4.334,0-8.648,0-12.994
		c0.339,0,0.646,0,0.985,0C100.842,55.604,100.842,59.897,100.842,64.252z"/>
</g>
</svg>
