<svg version="1.1" xmlns="http://www.w3.org/2000/svg" xmlns:xlink="http://www.w3.org/1999/xlink" x="0px" y="0px" viewBox="0 0 38.85 40.717" enable-background="new 0 0 38.85 40.717" xml:space="preserve">
<g>
	<line fill="none" stroke="#FFFFFF" stroke-width="2" stroke-miterlimit="10" x1="0" y1="1" x2="38.85" y2="1"/>
	<line fill="none" stroke="#FFFFFF" stroke-width="2" stroke-miterlimit="10" x1="0" y1="10.482" x2="38.85" y2="10.482"/>
	<line fill="none" stroke="#FFFFFF" stroke-width="2" stroke-miterlimit="10" x1="0" y1="20.965" x2="38.85" y2="20.965"/>
	<g>
		<path fill="#ffffff"  d="M10.148,33.224c0.434,0.205,0.787,0.522,1.057,0.953c0.27,0.43,0.404,0.96,0.404,1.59v4.8H10.41v-4.68
			c0-0.65-0.162-1.133-0.488-1.448c-0.324-0.314-0.752-0.472-1.281-0.472c-0.4,0-0.768,0.097-1.104,0.292
			c-0.334,0.195-0.605,0.48-0.809,0.855c-0.205,0.375-0.309,0.822-0.309,1.342v4.11H5.221v-4.68c0-0.65-0.164-1.133-0.488-1.448
			c-0.324-0.314-0.752-0.472-1.281-0.472c-0.361,0-0.711,0.092-1.051,0.277c-0.34,0.185-0.621,0.473-0.84,0.862
			c-0.221,0.39-0.33,0.875-0.33,1.455v4.005H0.029v-7.5H1.08l0.074,1.17c0.262-0.439,0.604-0.77,1.029-0.99
			c0.424-0.22,0.881-0.33,1.371-0.33c0.551,0,1.059,0.126,1.523,0.375c0.465,0.25,0.816,0.615,1.057,1.096
			c0.221-0.48,0.58-0.846,1.08-1.096c0.5-0.249,1.01-0.375,1.531-0.375C9.246,32.916,9.713,33.02,10.148,33.224z"/>
		<path  fill="#ffffff" d="M20.699,37.267h-5.654c0.07,0.76,0.322,1.35,0.758,1.77s0.998,0.63,1.688,0.63c0.549,0,1.008-0.095,1.373-0.284
			c0.365-0.19,0.611-0.466,0.742-0.825l1.004,0.524c-0.299,0.53-0.699,0.936-1.199,1.216c-0.5,0.279-1.141,0.42-1.92,0.42
			c-1.131,0-2.018-0.346-2.662-1.035c-0.645-0.69-0.969-1.646-0.969-2.865s0.309-2.175,0.924-2.865
			c0.615-0.689,1.486-1.035,2.617-1.035c0.699,0,1.305,0.155,1.814,0.466c0.51,0.31,0.895,0.729,1.156,1.26
			c0.26,0.53,0.389,1.125,0.389,1.785C20.76,36.706,20.74,36.986,20.699,37.267z M15.803,34.552
			c-0.404,0.39-0.652,0.939-0.742,1.649h4.545c-0.08-0.699-0.311-1.247-0.689-1.643c-0.381-0.395-0.887-0.592-1.516-0.592
			C16.74,33.967,16.207,34.161,15.803,34.552z"/>
		<path fill="#ffffff"  d="M28.785,33.651c0.549,0.49,0.824,1.195,0.824,2.115v4.8H28.41v-4.38c0-0.78-0.168-1.345-0.502-1.695
			c-0.336-0.35-0.783-0.524-1.344-0.524c-0.4,0-0.775,0.087-1.125,0.262c-0.35,0.176-0.637,0.461-0.861,0.855
			c-0.227,0.396-0.338,0.893-0.338,1.492v3.99h-1.201v-7.5h1.051l0.074,1.17c0.25-0.45,0.596-0.782,1.035-0.997
			c0.441-0.215,0.936-0.323,1.486-0.323C27.535,32.916,28.234,33.161,28.785,33.651z"/>
		<path  fill="#ffffff" d="M38.82,33.066v7.5H37.77l-0.074-1.14c-0.5,0.859-1.395,1.29-2.686,1.29c-0.811,0-1.473-0.226-1.986-0.676
			c-0.516-0.449-0.773-1.14-0.773-2.069v-4.905h1.199v4.59c0,0.73,0.15,1.248,0.451,1.553c0.299,0.305,0.74,0.457,1.32,0.457
			c0.689,0,1.262-0.21,1.717-0.63s0.684-1.05,0.684-1.89v-4.08H38.82z"/>
	</g>
</g>
</svg>
