<svg version="1.1"  xmlns="http://www.w3.org/2000/svg" xmlns:xlink="http://www.w3.org/1999/xlink" x="0px" y="0px"
	viewBox="0 0 19.797 19.797" enable-background="new 0 0 19.797 19.797" xml:space="preserve">
<g>
	<path fill="#FFFFFF" d="M10.216,3.063c-3.73,0-5.611,2.673-5.611,4.904c0,1.352,0.511,2.551,1.609,3.001
		c0.178,0.074,0.342,0.004,0.395-0.197c0.037-0.138,0.123-0.484,0.16-0.63C6.82,9.944,6.802,9.877,6.657,9.703
		C6.341,9.33,6.14,8.846,6.14,8.165c0-1.984,1.485-3.761,3.864-3.761c2.108,0,3.267,1.289,3.267,3.009
		c0,2.264-1.002,4.174-2.488,4.174c-0.822,0-1.438-0.678-1.24-1.512c0.234-0.994,0.693-2.066,0.693-2.785
		c0-0.644-0.347-1.18-1.059-1.18c-0.837,0-1.515,0.868-1.515,2.033c0,0.741,0.249,1.243,0.249,1.243s-0.859,3.642-1.009,4.278
		c-0.302,1.27-0.045,2.826-0.022,2.982c0.012,0.094,0.135,0.116,0.187,0.045c0.078-0.1,1.075-1.336,1.419-2.568
		c0.096-0.351,0.551-2.16,0.551-2.16c0.271,0.521,1.068,0.979,1.918,0.979c2.524,0,4.237-2.301,4.237-5.381
		C15.188,5.23,13.214,3.063,10.216,3.063z"/>
</g>
</svg>
