<svg version="1.1"  xmlns="http://www.w3.org/2000/svg" xmlns:xlink="http://www.w3.org/1999/xlink" x="0px" y="0px"
    viewBox="187.094 130.918 211.586 176.144"
    enable-background="new 187.094 130.918 211.586 176.144" xml:space="preserve">

    <path fill="#ffffff"  d="M233.364,249.873c0,5.541-3.956,10.051-8.855,10.051h-12.733H196.03c-4.904,0-8.932-4.51-8.932-10.051
        c0-5.525,4.027-9.961,8.932-9.961h15.745h12.733C229.404,239.912,233.364,244.343,233.364,249.873z"/>
        <path fill="#ffffff"  d="M398.675,270.046v18.271c0,10.357-8.784,18.744-19.457,18.744H231.233c-10.761,0-19.462-8.387-19.462-18.744v-15.984
            h12.732c7.359,0,13.841-3.956,17.717-9.885c2.295-3.633,3.562-7.987,3.562-12.581c0-12.33-9.494-22.462-21.274-22.462h-12.733
            v-18.027h12.733c11.784,0,21.274-10.123,21.274-22.461c0-12.343-9.494-22.466-21.274-22.466h-12.733v-14.717
            c0-10.358,8.697-18.816,19.462-18.816h147.985c10.673,0,19.458,8.462,19.458,18.816v120.312H398.675z M384.126,256.521v-90.01
            c0-10.756-0.877-19.542-11.235-19.542h-52.995h-36.07c-10.283,0-18.661,8.785-18.661,19.542v84.473
            c0.08,0,0.151-0.076,0.314-0.076c24.362-6.645,36.537-9.506,39.306-17.41h1.271c-0.395-0.307-0.713-0.549-1.028-0.948
            c-10.366-9.33-18.271-27.529-18.271-42.229c0-20.813,17.004-34.49,33.139-34.49c16.052,0,32.271,14.789,32.271,35.589
            c0,14.717-8.78,32.27-19.537,41.362c2.135,8.47,14.318,11.234,39.469,18.123C377.473,252.406,381.349,254.231,384.126,256.521z
            M312.219,233.498h1.267c-0.314-0.307-0.709-0.549-1.023-0.947C312.378,232.873,312.303,233.191,312.219,233.498z"/>
            <path fill="#ffffff"  d="M313.482,233.498h-1.268c0.089-0.307,0.16-0.625,0.244-0.947C312.773,232.949,313.167,233.191,313.482,233.498z"/>
            <path  fill="#ffffff" d="M224.503,176.874c4.9,0,8.856,4.498,8.856,10.048c0,5.529-3.956,9.964-8.856,9.964h-12.732h-15.745
                c-4.904,0-8.932-4.435-8.932-9.964c0-5.546,4.027-10.048,8.932-10.048h15.745H224.503z"/>

            </svg>
